Coordinates
version=1
nRows=19
nColumns=24
inDegrees=yes

Units are S.I. units (second, meters, Newtons, ...)
Angles are in degrees.

endheader
time	pelvis_tilt	pelvis_list	pelvis_rotation	pelvis_tx	pelvis_ty	pelvis_tz	hip_flexion_r	hip_adduction_r	hip_rotation_r	knee_angle_r	ankle_angle_r	subtalar_angle_r	mtp_angle_r	hip_flexion_l	hip_adduction_l	hip_rotation_l	knee_angle_l	ankle_angle_l	subtalar_angle_l	mtp_angle_l	lumbar_extension	lumbar_bending	lumbar_rotation
      3.25000000	      0.18752074	      1.52620605	      5.36286754	     -0.11575663	      0.67556019	     -0.30437125	     25.48310203	      1.20267445	      4.35446573	     -6.55365530	      6.50754852	     -8.59142413	      0.00000000	    -25.36451182	      3.88029296	     21.46055483	    -10.47927932	      8.91680988	    -12.29258903	      0.00000000	    -17.27986636	     -2.17619173	     -8.13715411
      3.26000000	      0.24298218	      0.64686280	      4.82767870	     -0.10019306	      0.67479359	     -0.30306339	     26.31219640	      2.63992067	      3.58227611	     -9.92415749	      5.79958346	     -8.38801262	      0.00000000	    -24.71969314	      3.32576446	     17.81091779	    -13.66214597	      8.68970279	     -8.40065886	      0.00000000	    -16.96491861	     -0.95687280	     -7.59006868
      3.27000000	     -0.23969186	     -0.20529092	      4.37989581	     -0.08484232	      0.67362372	     -0.30199067	     27.81968616	      3.91002274	      2.67916258	    -13.61116198	      5.24513625	     -8.20397103	      0.00000000	    -23.03344508	      2.75822239	     14.32939474	    -17.50787490	      7.89713191	     -4.98889114	      0.00000000	    -16.03642608	      0.26524211	     -7.21455934
      3.28000000	     -0.53301971	     -1.04961366	      3.83470709	     -0.06977420	      0.67273343	     -0.30086278	     29.07789544	      5.19191688	      1.98241449	    -17.27650973	      4.99830234	     -8.17406149	      0.00000000	    -21.30313189	      2.09923897	     11.15468571	    -21.60195673	      6.35894270	     -2.33514622	      0.00000000	    -15.48621498	      1.49494192	     -6.82694966
      3.29000000	     -0.71780692	     -2.08580909	      3.34016001	     -0.05469250	      0.67207728	     -0.29999024	     29.94573639	      6.61370915	      1.48724462	    -20.52575058	      5.19552448	     -8.18185581	      0.00000000	    -19.45926205	      1.13169867	      8.37298719	    -25.91904544	      4.31825099	     -0.52058558	      0.00000000	    -15.09356301	      3.05912915	     -6.51557646
      3.30000000	     -1.31457389	     -2.88790796	      3.04959153	     -0.04021167	      0.67120113	     -0.29908759	     31.04025116	      7.72187825	      1.19126806	    -23.38824948	      5.67150687	     -8.48815681	      0.00000000	    -16.74119429	      0.23336226	      6.21347140	    -30.67681194	      1.98508182	      0.91131038	      0.00000000	    -14.35770093	      4.26035557	     -6.65274390
      3.31000000	     -1.57528403	     -3.85997034	      2.82166190	     -0.02599975	      0.67086939	     -0.29837935	     31.42859569	      8.94792380	      0.78017667	    -25.62268237	      6.77544944	     -8.38243847	      0.00000000	    -14.21083502	     -0.92410989	      4.53475553	    -35.47773447	     -0.31486033	      1.85751923	      0.00000000	    -14.13513696	      5.71472636	     -6.70613509
      3.32000000	     -1.85466182	     -4.85470596	      2.72544355	     -0.01223629	      0.67076925	     -0.29779728	     31.50103692	     10.11563038	      0.32040275	    -27.21357340	      8.19760070	     -8.14002223	      0.00000000	    -11.41821853	     -2.15464692	      3.44093940	    -40.37948104	     -2.30707280	      2.55001482	      0.00000000	    -13.97645319	      7.17600733	     -6.83706073
      3.33000000	     -2.22672594	     -5.80838720	      2.72132001	      0.00103972	      0.67080552	     -0.29730890	     31.38043568	     11.16119935	     -0.23221060	    -28.22461764	      9.85385722	     -7.72836338	      0.00000000	     -8.31893878	     -3.32713862	      2.86922861	    -45.29190680	     -3.75341212	      3.09038538	      0.00000000	    -13.77454070	      8.53012734	     -6.92656534
      3.34000000	     -2.63435094	     -6.72909230	      2.72880172	      0.01391578	      0.67107408	     -0.29685941	     31.02532381	     12.12917196	     -0.82231383	    -28.70414464	     11.58077472	     -7.11453038	      0.00000000	     -5.04780614	     -4.40302709	      2.68741716	    -50.08887074	     -4.49815448	      3.66775433	      0.00000000	    -13.55589926	      9.78182413	     -6.91448086
      3.35000000	     -3.07438765	     -7.59306480	      2.70413119	      0.02649211	      0.67157565	     -0.29640205	     30.47049469	     13.02587883	     -1.38817803	    -28.74509696	     13.25586084	     -6.35030266	      0.00000000	     -1.67152068	     -5.33624433	      2.77397575	    -54.66297140	     -4.48886529	      4.29617569	      0.00000000	    -13.29303956	     10.88921219	     -6.75010406
      3.36000000	     -3.68772340	     -8.34829013	      2.59500861	      0.03889081	      0.67217189	     -0.29594196	     29.89551743	     13.81641587	     -1.82972778	    -28.44086931	     14.77720444	     -5.50409023	      0.00000000	      1.91502758	     -6.05037805	      2.99889556	    -58.92317263	     -3.94170311	      4.72307735	      0.00000000	    -12.76348715	     11.80839001	     -6.42579081
      3.37000000	     -4.02266292	     -9.00746279	      2.41709092	      0.05122815	      0.67338220	     -0.29538071	     28.81827660	     14.58770106	     -2.05133118	    -27.82165886	     16.11427631	     -4.66505109	      0.00000000	      5.10539524	     -6.62761012	      3.27723694	    -62.70442263	     -2.73569058	      5.33217644	      0.00000000	    -12.55993482	     12.54121237	     -5.93103243
      3.38000000	     -4.32607960	     -9.49304924	      2.12226577	      0.06353300	      0.67491934	     -0.29469801	     27.55672612	     15.25942414	     -1.99204223	    -27.01249933	     17.18803071	     -3.95081394	      0.00000000	      8.16420156	     -7.00046360	      3.47608272	    -65.98916737	     -1.25880211	      5.75613449	      0.00000000	    -12.37043193	     13.00738503	     -5.27978001
      3.39000000	     -4.48845231	     -9.79480682	      1.71411010	      0.07582223	      0.67689294	     -0.29388678	     26.01197225	     15.83014384	     -1.60833152	    -26.05741677	     17.99738852	     -3.41299164	      0.00000000	     10.94560691	     -7.20552211	      3.51565543	    -68.73339422	      0.25854665	      5.91737563	      0.00000000	    -12.35893173	     13.20638616	     -4.45083982
      3.40000000	     -4.66155966	     -9.92109502	      1.27103062	      0.08818660	      0.67906343	     -0.29304541	     24.34247581	     16.26534948	     -0.85047834	    -24.94275823	     18.57607964	     -3.15358835	      0.00000000	     13.61718543	     -7.24315007	      3.46861701	    -70.93891832	      1.72026232	      5.69420831	      0.00000000	    -12.26569025	     13.18447235	     -3.66117569
      3.41000000	     -4.78690849	     -9.86479076	      0.77469981	      0.10054892	      0.68144067	     -0.29216273	     22.52897517	     16.54480125	      0.23364971	    -23.73089275	     18.93996226	     -3.14113227	      0.00000000	     16.10364670	     -7.12776494	      3.28175585	    -72.60509853	      3.03514578	      5.08596459	      0.00000000	    -12.21740987	     12.94011973	     -2.86997188
      3.42000000	     -4.88889820	     -9.62477614	      0.26514389	      0.11286392	      0.68394074	     -0.29126600	     20.60797318	     16.63611181	      1.61766337	    -22.40556145	     19.13417057	     -3.40170490	      0.00000000	     18.44881867	     -6.86206033	      2.97939291	    -73.75136455	      4.10375498	      4.12378934	      0.00000000	    -12.18424424	     12.46810629	     -2.13433578
      3.43000000	     -4.96847587	     -9.23852002	     -0.24532264	      0.12509922	      0.68648138	     -0.29038593	     18.61156247	     16.54479534	      3.17980119	    -20.98460717	     19.16864109	     -3.89222195	      0.00000000	     20.65331738	     -6.47482031	      2.60026106	    -74.40499647	      4.95928177	      2.89332081	      0.00000000	    -12.18136932	     11.82565519	     -1.39449489
